<mxfile host="45efc735-d478-4aac-a60b-e2c52e2d35e6" modified="2020-08-23T23:55:59.513Z" agent="5.0 (Windows NT 10.0; Win64; x64) AppleWebKit/537.36 (KHTML, like Gecko) Code/1.48.1 Chrome/78.0.3904.130 Electron/7.3.2 Safari/537.36" etag="avxjkH3xQ6qJFf37dPRP" version="13.1.3" pages="3">
    <diagram id="4nee8R17VcMMq7ZRuauH" name="Page-1">
        <mxGraphModel dx="885" dy="303" grid="1" gridSize="10" guides="1" tooltips="1" connect="1" arrows="1" fold="1" page="1" pageScale="1" pageWidth="827" pageHeight="1169" math="0" shadow="0">
            <root>
                <mxCell id="0"/>
                <mxCell id="1" parent="0"/>
                <mxCell id="_sV7yXjVVkcsPeNZVxme-320" value="" style="edgeStyle=orthogonalEdgeStyle;rounded=0;orthogonalLoop=1;jettySize=auto;html=1;startArrow=classic;startFill=1;" parent="1" source="_sV7yXjVVkcsPeNZVxme-306" target="_sV7yXjVVkcsPeNZVxme-319" edge="1">
                    <mxGeometry relative="1" as="geometry"/>
                </mxCell>
                <mxCell id="_sV7yXjVVkcsPeNZVxme-322" value="" style="edgeStyle=orthogonalEdgeStyle;rounded=0;orthogonalLoop=1;jettySize=auto;html=1;startArrow=classic;startFill=1;" parent="1" source="_sV7yXjVVkcsPeNZVxme-306" target="_sV7yXjVVkcsPeNZVxme-321" edge="1">
                    <mxGeometry relative="1" as="geometry"/>
                </mxCell>
                <mxCell id="_sV7yXjVVkcsPeNZVxme-331" value="" style="edgeStyle=orthogonalEdgeStyle;rounded=0;orthogonalLoop=1;jettySize=auto;html=1;startArrow=classic;startFill=1;" parent="1" source="_sV7yXjVVkcsPeNZVxme-306" target="_sV7yXjVVkcsPeNZVxme-330" edge="1">
                    <mxGeometry relative="1" as="geometry"/>
                </mxCell>
                <mxCell id="_sV7yXjVVkcsPeNZVxme-306" value="メインページ" style="rounded=1;whiteSpace=wrap;html=1;fillColor=#FFB570;" parent="1" vertex="1">
                    <mxGeometry x="320" y="360" width="200" height="130" as="geometry"/>
                </mxCell>
                <mxCell id="_sV7yXjVVkcsPeNZVxme-330" value="ログアウト確認ページ" style="rounded=1;whiteSpace=wrap;html=1;fillColor=#FFB570;" parent="1" vertex="1">
                    <mxGeometry x="320" y="570" width="200" height="130" as="geometry"/>
                </mxCell>
                <mxCell id="_sV7yXjVVkcsPeNZVxme-321" value="ランディングページ" style="rounded=1;whiteSpace=wrap;html=1;fillColor=#FFB570;" parent="1" vertex="1">
                    <mxGeometry x="40" y="360" width="200" height="130" as="geometry"/>
                </mxCell>
                <mxCell id="_sV7yXjVVkcsPeNZVxme-319" value="詳細ページ" style="rounded=1;whiteSpace=wrap;html=1;fillColor=#FFB570;" parent="1" vertex="1">
                    <mxGeometry x="600" y="360" width="200" height="130" as="geometry"/>
                </mxCell>
                <mxCell id="_sV7yXjVVkcsPeNZVxme-325" style="edgeStyle=orthogonalEdgeStyle;rounded=0;orthogonalLoop=1;jettySize=auto;html=1;entryX=0;entryY=0.286;entryDx=0;entryDy=0;entryPerimeter=0;startArrow=classic;startFill=1;" parent="1" source="_sV7yXjVVkcsPeNZVxme-307" target="_sV7yXjVVkcsPeNZVxme-316" edge="1">
                    <mxGeometry relative="1" as="geometry"/>
                </mxCell>
                <mxCell id="_sV7yXjVVkcsPeNZVxme-307" value="ユーザー情報ページ" style="rounded=1;whiteSpace=wrap;html=1;fillColor=#FFB570;" parent="1" vertex="1">
                    <mxGeometry x="40" y="150" width="180" height="60" as="geometry"/>
                </mxCell>
                <mxCell id="_sV7yXjVVkcsPeNZVxme-314" value="サービス紹介/ログイン/登録" style="shape=callout;whiteSpace=wrap;html=1;perimeter=calloutPerimeter;fillColor=#B9E0A5;" parent="1" vertex="1">
                    <mxGeometry x="60" y="280" width="160" height="80" as="geometry"/>
                </mxCell>
                <mxCell id="_sV7yXjVVkcsPeNZVxme-316" value="&lt;pre&gt;&lt;font face=&quot;Helvetica&quot;&gt;&lt;b&gt;作業A&lt;/b&gt;&lt;/font&gt;&lt;/pre&gt;&lt;b&gt;ナビゲーションバー&lt;br&gt;ToDo一覧表示&lt;br&gt;追加・削除・状態変更&lt;br&gt;いいね機能&lt;br&gt;レーティング機能&lt;br&gt;カテゴリ・ソート機能&lt;br&gt;フィルター機能&lt;br&gt;追加日と完了日の表示&lt;br&gt;&lt;/b&gt;" style="shape=callout;whiteSpace=wrap;html=1;perimeter=calloutPerimeter;fillColor=#B9E0A5;" parent="1" vertex="1">
                    <mxGeometry x="340" y="150" width="140" height="210" as="geometry"/>
                </mxCell>
                <mxCell id="_sV7yXjVVkcsPeNZVxme-323" value="&lt;p&gt;&lt;b&gt;&lt;font face=&quot;Helvetica&quot;&gt;作業B&lt;/font&gt;&lt;/b&gt;&lt;/p&gt;&lt;p&gt;&lt;b&gt;&lt;font face=&quot;Helvetica&quot;&gt;グループ機能&lt;br&gt;&lt;/font&gt;&lt;font face=&quot;Helvetica&quot;&gt;Twitterへ投稿&lt;br&gt;&lt;/font&gt;タスクの備考設定&lt;br&gt;タイマー機能&lt;/b&gt;&lt;/p&gt;" style="shape=callout;whiteSpace=wrap;html=1;perimeter=calloutPerimeter;fillColor=#d5e8d4;strokeColor=#82b366;position2=0.44;align=center;" parent="1" vertex="1">
                    <mxGeometry x="540" y="220" width="270" height="140" as="geometry"/>
                </mxCell>
                <mxCell id="_sV7yXjVVkcsPeNZVxme-328" value="&lt;pre&gt;&lt;b&gt;&lt;font face=&quot;Helvetica&quot;&gt;作業C&lt;/font&gt;&lt;/b&gt;&lt;/pre&gt;&lt;pre&gt;&lt;b&gt;&lt;font face=&quot;Helvetica&quot;&gt;パスワード変更&lt;/font&gt;&lt;/b&gt;&lt;/pre&gt;&lt;pre&gt;&lt;b&gt;&lt;font face=&quot;Helvetica&quot;&gt;ソーシャルログイン連携・解除&lt;/font&gt;&lt;/b&gt;&lt;/pre&gt;" style="shape=callout;whiteSpace=wrap;html=1;perimeter=calloutPerimeter;fillColor=#B9E0A5;" parent="1" vertex="1">
                    <mxGeometry x="70" y="20" width="180" height="130" as="geometry"/>
                </mxCell>
            </root>
        </mxGraphModel>
    </diagram>
    <diagram id="1KoPMDaG_ER6wIDS6QyI" name="Page-2">
        <mxGraphModel dx="2016" dy="2233" grid="1" gridSize="10" guides="1" tooltips="1" connect="1" arrows="1" fold="1" page="1" pageScale="1" pageWidth="827" pageHeight="1169" math="0" shadow="0">
            <root>
                <mxCell id="_QDG5Rb_dqg1lAWrn-jz-0"/>
                <mxCell id="_QDG5Rb_dqg1lAWrn-jz-1" parent="_QDG5Rb_dqg1lAWrn-jz-0"/>
                <mxCell id="mvptM85uLOfzEBfm-qhw-252" value="&lt;div style=&quot;text-align: center&quot;&gt;&lt;span&gt;グループ情報&lt;/span&gt;&lt;/div&gt;・ID&lt;br&gt;・メンバー（MtoM）&lt;br&gt;・グループ名&lt;br&gt;・パスワード" style="whiteSpace=wrap;html=1;shape=mxgraph.basic.roundRectCallout;dx=30;dy=15;size=5;boundedLbl=1;fontSize=13;fontFamily=Garamond;fillColor=#d5e8d4;strokeColor=#82b366;align=left;horizontal=1;verticalAlign=top;" parent="_QDG5Rb_dqg1lAWrn-jz-1" vertex="1">
                    <mxGeometry x="350" y="-480" width="180" height="130" as="geometry"/>
                </mxCell>
                <mxCell id="Gwi2tzREElcgBNwIq8oY-31" value="&lt;div style=&quot;text-align: center&quot;&gt;&lt;span&gt;グループ詳細&lt;/span&gt;&lt;/div&gt;・ID&lt;br&gt;・ユーザー（FK）&lt;br&gt;・所属グループ（FK）&lt;br&gt;・参加日&lt;br&gt;・参加した理由" style="whiteSpace=wrap;html=1;shape=mxgraph.basic.roundRectCallout;dx=9.6;dy=16;size=5;boundedLbl=1;fontSize=13;fontFamily=Garamond;fillColor=#d5e8d4;strokeColor=#82b366;align=left;horizontal=1;verticalAlign=top;" vertex="1" parent="_QDG5Rb_dqg1lAWrn-jz-1">
                    <mxGeometry x="359" y="-170" width="151" height="130" as="geometry"/>
                </mxCell>
                <mxCell id="mvptM85uLOfzEBfm-qhw-253" value="&lt;span style=&quot;color: rgba(0 , 0 , 0 , 0) ; font-family: monospace ; font-size: 0px&quot;&gt;%3CmxGraphModel%3E%3Croot%3E%3CmxCell%20id%3D%220%22%2F%3E%3CmxCell%20id%3D%221%22%20parent%3D%220%22%2F%3E%3CmxCell%20id%3D%222%22%20value%3D%22rate(float)%22%20style%3D%22shape%3DpartialRectangle%3Bconnectable%3D0%3BfillColor%3Dnone%3Btop%3D0%3Bleft%3D0%3Bbottom%3D0%3Bright%3D0%3Balign%3Dleft%3BspacingLeft%3D6%3Boverflow%3Dhidden%3B%22%20vertex%3D%221%22%20parent%3D%221%22%3E%3CmxGeometry%20x%3D%22430%22%20y%3D%22240%22%20width%3D%22240%22%20height%3D%2230%22%20as%3D%22geometry%22%2F%3E%3C%2FmxCell%3E%3C%2Froot%3E%3C%2FmxGraphModel%3E&lt;/span&gt;" style="text;html=1;align=center;verticalAlign=middle;resizable=0;points=[];autosize=1;" parent="_QDG5Rb_dqg1lAWrn-jz-1" vertex="1">
                    <mxGeometry x="510" y="-440" width="270" height="20" as="geometry"/>
                </mxCell>
                <mxCell id="mvptM85uLOfzEBfm-qhw-263" style="edgeStyle=orthogonalEdgeStyle;rounded=0;orthogonalLoop=1;jettySize=auto;html=1;entryX=0;entryY=0.5;entryDx=0;entryDy=0;endArrow=ERzeroToMany;endFill=1;startArrow=ERzeroToMany;startFill=1;" parent="_QDG5Rb_dqg1lAWrn-jz-1" source="mvptM85uLOfzEBfm-qhw-153" target="mvptM85uLOfzEBfm-qhw-241" edge="1">
                    <mxGeometry relative="1" as="geometry"/>
                </mxCell>
                <mxCell id="mvptM85uLOfzEBfm-qhw-266" style="edgeStyle=orthogonalEdgeStyle;rounded=0;orthogonalLoop=1;jettySize=auto;html=1;entryX=1;entryY=0.5;entryDx=0;entryDy=0;endArrow=ERmany;endFill=0;" parent="_QDG5Rb_dqg1lAWrn-jz-1" source="mvptM85uLOfzEBfm-qhw-184" target="mvptM85uLOfzEBfm-qhw-174" edge="1">
                    <mxGeometry relative="1" as="geometry"/>
                </mxCell>
                <mxCell id="mvptM85uLOfzEBfm-qhw-267" style="edgeStyle=orthogonalEdgeStyle;rounded=0;orthogonalLoop=1;jettySize=auto;html=1;entryX=1;entryY=0.5;entryDx=0;entryDy=0;endArrow=ERmany;endFill=0;" parent="_QDG5Rb_dqg1lAWrn-jz-1" source="mvptM85uLOfzEBfm-qhw-239" target="mvptM85uLOfzEBfm-qhw-178" edge="1">
                    <mxGeometry relative="1" as="geometry"/>
                </mxCell>
                <mxCell id="mvptM85uLOfzEBfm-qhw-271" value="&lt;div style=&quot;text-align: center&quot;&gt;ユーザー情報&lt;span&gt;(usersフォルダ)&lt;/span&gt;&lt;/div&gt;・ID&lt;br&gt;・パスワード&lt;br&gt;・メールアドレス" style="whiteSpace=wrap;html=1;shape=mxgraph.basic.roundRectCallout;dx=104.45;dy=21;size=5;boundedLbl=1;fontSize=13;fontFamily=Garamond;fillColor=#d5e8d4;strokeColor=#82b366;align=left;horizontal=1;verticalAlign=top;" parent="_QDG5Rb_dqg1lAWrn-jz-1" vertex="1">
                    <mxGeometry x="270" y="150" width="180" height="130" as="geometry"/>
                </mxCell>
                <mxCell id="mvptM85uLOfzEBfm-qhw-273" value="&lt;div style=&quot;text-align: center&quot;&gt;タスク情報(todoフォルダ)&lt;/div&gt;・ID&lt;br&gt;・タスク名&lt;br&gt;・タスク詳細&lt;br&gt;・グループID(FK)&lt;br&gt;・カテゴリーID(FK)&lt;br&gt;・レート(0~5)&lt;br&gt;・いいね（MtoM）&lt;br&gt;・追加日&lt;br&gt;・完了日&lt;br&gt;・作成ユーザー(FK)" style="whiteSpace=wrap;html=1;shape=mxgraph.basic.roundRectCallout;dx=30;dy=15;size=5;boundedLbl=1;fontSize=13;fontFamily=Garamond;fillColor=#d5e8d4;strokeColor=#82b366;align=left;horizontal=1;verticalAlign=top;" parent="_QDG5Rb_dqg1lAWrn-jz-1" vertex="1">
                    <mxGeometry x="549" y="-70" width="180" height="230" as="geometry"/>
                </mxCell>
                <mxCell id="mvptM85uLOfzEBfm-qhw-274" value="&lt;div style=&quot;text-align: center&quot;&gt;カテゴリー&lt;span&gt;(todoフォルダ)&lt;/span&gt;&lt;/div&gt;・ID&lt;br&gt;・カテゴリー名" style="whiteSpace=wrap;html=1;shape=mxgraph.basic.roundRectCallout;dx=30;dy=15;size=5;boundedLbl=1;fontSize=13;fontFamily=Garamond;fillColor=#d5e8d4;strokeColor=#82b366;align=left;horizontal=1;verticalAlign=top;" parent="_QDG5Rb_dqg1lAWrn-jz-1" vertex="1">
                    <mxGeometry x="959" y="131" width="180" height="130" as="geometry"/>
                </mxCell>
                <mxCell id="mvptM85uLOfzEBfm-qhw-183" value="Category" style="swimlane;fontStyle=0;childLayout=stackLayout;horizontal=1;startSize=26;fillColor=#e0e0e0;horizontalStack=0;resizeParent=1;resizeParentMax=0;resizeLast=0;collapsible=1;marginBottom=0;swimlaneFillColor=#ffffff;align=center;fontSize=14;labelBackgroundColor=none;html=0;" parent="_QDG5Rb_dqg1lAWrn-jz-1" vertex="1">
                    <mxGeometry x="959" y="261" width="219" height="82" as="geometry"/>
                </mxCell>
                <mxCell id="mvptM85uLOfzEBfm-qhw-184" value="id( int )" style="shape=partialRectangle;top=0;left=0;right=0;bottom=1;align=left;verticalAlign=middle;fillColor=none;spacingLeft=60;spacingRight=4;overflow=hidden;rotatable=0;points=[[0,0.5],[1,0.5]];portConstraint=eastwest;dropTarget=0;fontStyle=5;fontSize=12;" parent="mvptM85uLOfzEBfm-qhw-183" vertex="1">
                    <mxGeometry y="26" width="219" height="30" as="geometry"/>
                </mxCell>
                <mxCell id="mvptM85uLOfzEBfm-qhw-185" value="PK" style="shape=partialRectangle;fontStyle=1;top=0;left=0;bottom=0;fillColor=none;align=center;verticalAlign=middle;spacingLeft=4;spacingRight=4;overflow=hidden;rotatable=0;points=[];portConstraint=eastwest;part=1;fontSize=12;" parent="mvptM85uLOfzEBfm-qhw-184" vertex="1" connectable="0">
                    <mxGeometry width="56" height="30" as="geometry"/>
                </mxCell>
                <mxCell id="mvptM85uLOfzEBfm-qhw-186" value="category(char)" style="shape=partialRectangle;top=0;left=0;right=0;bottom=0;align=left;verticalAlign=top;fillColor=none;spacingLeft=60;spacingRight=4;overflow=hidden;rotatable=0;points=[[0,0.5],[1,0.5]];portConstraint=eastwest;dropTarget=0;fontSize=12;" parent="mvptM85uLOfzEBfm-qhw-183" vertex="1">
                    <mxGeometry y="56" width="219" height="26" as="geometry"/>
                </mxCell>
                <mxCell id="mvptM85uLOfzEBfm-qhw-187" value="" style="shape=partialRectangle;top=0;left=0;bottom=0;fillColor=none;align=center;verticalAlign=top;spacingLeft=4;spacingRight=4;overflow=hidden;rotatable=0;points=[];portConstraint=eastwest;part=1;fontSize=12;fontStyle=1" parent="mvptM85uLOfzEBfm-qhw-186" vertex="1" connectable="0">
                    <mxGeometry width="56" height="26" as="geometry"/>
                </mxCell>
                <mxCell id="Gwi2tzREElcgBNwIq8oY-10" value="UserGroupRelation" style="swimlane;fontStyle=0;childLayout=stackLayout;horizontal=1;startSize=26;fillColor=#e0e0e0;horizontalStack=0;resizeParent=1;resizeParentMax=0;resizeLast=0;collapsible=1;marginBottom=0;swimlaneFillColor=#ffffff;align=center;fontSize=14;labelBackgroundColor=none;html=0;" vertex="1" parent="_QDG5Rb_dqg1lAWrn-jz-1">
                    <mxGeometry x="140" y="-80" width="219" height="186" as="geometry"/>
                </mxCell>
                <mxCell id="Gwi2tzREElcgBNwIq8oY-11" value="id( int )" style="shape=partialRectangle;top=0;left=0;right=0;bottom=1;align=left;verticalAlign=middle;fillColor=none;spacingLeft=60;spacingRight=4;overflow=hidden;rotatable=0;points=[[0,0.5],[1,0.5]];portConstraint=eastwest;dropTarget=0;fontStyle=5;fontSize=12;" vertex="1" parent="Gwi2tzREElcgBNwIq8oY-10">
                    <mxGeometry y="26" width="219" height="30" as="geometry"/>
                </mxCell>
                <mxCell id="Gwi2tzREElcgBNwIq8oY-12" value="PK" style="shape=partialRectangle;fontStyle=1;top=0;left=0;bottom=0;fillColor=none;align=center;verticalAlign=middle;spacingLeft=4;spacingRight=4;overflow=hidden;rotatable=0;points=[];portConstraint=eastwest;part=1;fontSize=12;" vertex="1" connectable="0" parent="Gwi2tzREElcgBNwIq8oY-11">
                    <mxGeometry width="56" height="30" as="geometry"/>
                </mxCell>
                <mxCell id="Gwi2tzREElcgBNwIq8oY-13" value="customuser_obj(obj)" style="shape=partialRectangle;top=0;left=0;right=0;bottom=0;align=left;verticalAlign=top;fillColor=none;spacingLeft=60;spacingRight=4;overflow=hidden;rotatable=0;points=[[0,0.5],[1,0.5]];portConstraint=eastwest;dropTarget=0;fontSize=12;" vertex="1" parent="Gwi2tzREElcgBNwIq8oY-10">
                    <mxGeometry y="56" width="219" height="26" as="geometry"/>
                </mxCell>
                <mxCell id="Gwi2tzREElcgBNwIq8oY-14" value="FK" style="shape=partialRectangle;top=0;left=0;bottom=0;fillColor=none;align=center;verticalAlign=top;spacingLeft=4;spacingRight=4;overflow=hidden;rotatable=0;points=[];portConstraint=eastwest;part=1;fontSize=12;fontStyle=1" vertex="1" connectable="0" parent="Gwi2tzREElcgBNwIq8oY-13">
                    <mxGeometry width="56" height="26" as="geometry"/>
                </mxCell>
                <mxCell id="Gwi2tzREElcgBNwIq8oY-15" value="group_obj(obj)" style="shape=partialRectangle;top=0;left=0;right=0;bottom=0;align=left;verticalAlign=top;fillColor=none;spacingLeft=60;spacingRight=4;overflow=hidden;rotatable=0;points=[[0,0.5],[1,0.5]];portConstraint=eastwest;dropTarget=0;fontSize=12;" vertex="1" parent="Gwi2tzREElcgBNwIq8oY-10">
                    <mxGeometry y="82" width="219" height="26" as="geometry"/>
                </mxCell>
                <mxCell id="Gwi2tzREElcgBNwIq8oY-16" value="FK&#10;&#10;" style="shape=partialRectangle;top=0;left=0;bottom=0;fillColor=none;align=center;verticalAlign=top;spacingLeft=4;spacingRight=4;overflow=hidden;rotatable=0;points=[];portConstraint=eastwest;part=1;fontSize=12;fontStyle=1" vertex="1" connectable="0" parent="Gwi2tzREElcgBNwIq8oY-15">
                    <mxGeometry width="56" height="26" as="geometry"/>
                </mxCell>
                <mxCell id="Gwi2tzREElcgBNwIq8oY-28" value="joined_date(datetime)" style="shape=partialRectangle;top=0;left=0;right=0;bottom=0;align=left;verticalAlign=top;fillColor=none;spacingLeft=60;spacingRight=4;overflow=hidden;rotatable=0;points=[[0,0.5],[1,0.5]];portConstraint=eastwest;dropTarget=0;fontSize=12;" vertex="1" parent="Gwi2tzREElcgBNwIq8oY-10">
                    <mxGeometry y="108" width="219" height="26" as="geometry"/>
                </mxCell>
                <mxCell id="Gwi2tzREElcgBNwIq8oY-29" value="" style="shape=partialRectangle;top=0;left=0;bottom=0;fillColor=none;align=left;verticalAlign=top;spacingLeft=4;spacingRight=4;overflow=hidden;rotatable=0;points=[];portConstraint=eastwest;part=1;fontSize=12;" vertex="1" connectable="0" parent="Gwi2tzREElcgBNwIq8oY-28">
                    <mxGeometry width="56" height="26" as="geometry"/>
                </mxCell>
                <mxCell id="Gwi2tzREElcgBNwIq8oY-17" value="detail(char)" style="shape=partialRectangle;top=0;left=0;right=0;bottom=0;align=left;verticalAlign=top;fillColor=none;spacingLeft=60;spacingRight=4;overflow=hidden;rotatable=0;points=[[0,0.5],[1,0.5]];portConstraint=eastwest;dropTarget=0;fontSize=12;" vertex="1" parent="Gwi2tzREElcgBNwIq8oY-10">
                    <mxGeometry y="134" width="219" height="26" as="geometry"/>
                </mxCell>
                <mxCell id="Gwi2tzREElcgBNwIq8oY-18" value="" style="shape=partialRectangle;top=0;left=0;bottom=0;fillColor=none;align=left;verticalAlign=top;spacingLeft=4;spacingRight=4;overflow=hidden;rotatable=0;points=[];portConstraint=eastwest;part=1;fontSize=12;" vertex="1" connectable="0" parent="Gwi2tzREElcgBNwIq8oY-17">
                    <mxGeometry width="56" height="26" as="geometry"/>
                </mxCell>
                <mxCell id="Gwi2tzREElcgBNwIq8oY-19" value="" style="shape=partialRectangle;top=0;left=0;right=0;bottom=0;align=left;verticalAlign=top;fillColor=none;spacingLeft=60;spacingRight=4;overflow=hidden;rotatable=0;points=[[0,0.5],[1,0.5]];portConstraint=eastwest;dropTarget=0;fontSize=12;" vertex="1" parent="Gwi2tzREElcgBNwIq8oY-10">
                    <mxGeometry y="160" width="219" height="26" as="geometry"/>
                </mxCell>
                <mxCell id="Gwi2tzREElcgBNwIq8oY-20" value="" style="shape=partialRectangle;top=0;left=0;bottom=0;fillColor=none;align=left;verticalAlign=top;spacingLeft=4;spacingRight=4;overflow=hidden;rotatable=0;points=[];portConstraint=eastwest;part=1;fontSize=12;" vertex="1" connectable="0" parent="Gwi2tzREElcgBNwIq8oY-19">
                    <mxGeometry width="56" height="26" as="geometry"/>
                </mxCell>
                <mxCell id="mvptM85uLOfzEBfm-qhw-167" value="ToDo" style="swimlane;fontStyle=0;childLayout=stackLayout;horizontal=1;startSize=26;fillColor=#e0e0e0;horizontalStack=0;resizeParent=1;resizeParentMax=0;resizeLast=0;collapsible=1;marginBottom=0;swimlaneFillColor=#ffffff;align=center;fontSize=14;labelBackgroundColor=none;html=0;" parent="_QDG5Rb_dqg1lAWrn-jz-1" vertex="1">
                    <mxGeometry x="549" y="170" width="219" height="290" as="geometry"/>
                </mxCell>
                <mxCell id="mvptM85uLOfzEBfm-qhw-168" value="id( int )" style="shape=partialRectangle;top=0;left=0;right=0;bottom=1;align=left;verticalAlign=middle;fillColor=none;spacingLeft=60;spacingRight=4;overflow=hidden;rotatable=0;points=[[0,0.5],[1,0.5]];portConstraint=eastwest;dropTarget=0;fontStyle=5;fontSize=12;" parent="mvptM85uLOfzEBfm-qhw-167" vertex="1">
                    <mxGeometry y="26" width="219" height="30" as="geometry"/>
                </mxCell>
                <mxCell id="mvptM85uLOfzEBfm-qhw-169" value="PK" style="shape=partialRectangle;fontStyle=1;top=0;left=0;bottom=0;fillColor=none;align=center;verticalAlign=middle;spacingLeft=4;spacingRight=4;overflow=hidden;rotatable=0;points=[];portConstraint=eastwest;part=1;fontSize=12;" parent="mvptM85uLOfzEBfm-qhw-168" vertex="1" connectable="0">
                    <mxGeometry width="56" height="30" as="geometry"/>
                </mxCell>
                <mxCell id="mvptM85uLOfzEBfm-qhw-170" value="task_name(char)" style="shape=partialRectangle;top=0;left=0;right=0;bottom=0;align=left;verticalAlign=top;fillColor=none;spacingLeft=60;spacingRight=4;overflow=hidden;rotatable=0;points=[[0,0.5],[1,0.5]];portConstraint=eastwest;dropTarget=0;fontSize=12;" parent="mvptM85uLOfzEBfm-qhw-167" vertex="1">
                    <mxGeometry y="56" width="219" height="26" as="geometry"/>
                </mxCell>
                <mxCell id="mvptM85uLOfzEBfm-qhw-171" value="" style="shape=partialRectangle;top=0;left=0;bottom=0;fillColor=none;align=center;verticalAlign=top;spacingLeft=4;spacingRight=4;overflow=hidden;rotatable=0;points=[];portConstraint=eastwest;part=1;fontSize=12;fontStyle=1" parent="mvptM85uLOfzEBfm-qhw-170" vertex="1" connectable="0">
                    <mxGeometry width="56" height="26" as="geometry"/>
                </mxCell>
                <mxCell id="mvptM85uLOfzEBfm-qhw-172" value="task_detail(text)" style="shape=partialRectangle;top=0;left=0;right=0;bottom=0;align=left;verticalAlign=top;fillColor=none;spacingLeft=60;spacingRight=4;overflow=hidden;rotatable=0;points=[[0,0.5],[1,0.5]];portConstraint=eastwest;dropTarget=0;fontSize=12;" parent="mvptM85uLOfzEBfm-qhw-167" vertex="1">
                    <mxGeometry y="82" width="219" height="26" as="geometry"/>
                </mxCell>
                <mxCell id="mvptM85uLOfzEBfm-qhw-173" value="" style="shape=partialRectangle;top=0;left=0;bottom=0;fillColor=none;align=left;verticalAlign=top;spacingLeft=4;spacingRight=4;overflow=hidden;rotatable=0;points=[];portConstraint=eastwest;part=1;fontSize=12;" parent="mvptM85uLOfzEBfm-qhw-172" vertex="1" connectable="0">
                    <mxGeometry width="56" height="26" as="geometry"/>
                </mxCell>
                <mxCell id="mvptM85uLOfzEBfm-qhw-178" value="group_obj(obj)" style="shape=partialRectangle;top=0;left=0;right=0;bottom=0;align=left;verticalAlign=top;fillColor=none;spacingLeft=60;spacingRight=4;overflow=hidden;rotatable=0;points=[[0,0.5],[1,0.5]];portConstraint=eastwest;dropTarget=0;fontSize=12;" parent="mvptM85uLOfzEBfm-qhw-167" vertex="1">
                    <mxGeometry y="108" width="219" height="26" as="geometry"/>
                </mxCell>
                <mxCell id="mvptM85uLOfzEBfm-qhw-179" value="FK" style="shape=partialRectangle;top=0;left=0;bottom=0;fillColor=none;align=center;verticalAlign=top;spacingLeft=4;spacingRight=4;overflow=hidden;rotatable=0;points=[];portConstraint=eastwest;part=1;fontSize=12;fontStyle=1" parent="mvptM85uLOfzEBfm-qhw-178" vertex="1" connectable="0">
                    <mxGeometry width="56" height="26" as="geometry"/>
                </mxCell>
                <mxCell id="mvptM85uLOfzEBfm-qhw-174" value="category_obj(obj)" style="shape=partialRectangle;top=0;left=0;right=0;bottom=0;align=left;verticalAlign=top;fillColor=none;spacingLeft=60;spacingRight=4;overflow=hidden;rotatable=0;points=[[0,0.5],[1,0.5]];portConstraint=eastwest;dropTarget=0;fontSize=12;" parent="mvptM85uLOfzEBfm-qhw-167" vertex="1">
                    <mxGeometry y="134" width="219" height="26" as="geometry"/>
                </mxCell>
                <mxCell id="mvptM85uLOfzEBfm-qhw-175" value="FK" style="shape=partialRectangle;top=0;left=0;bottom=0;fillColor=none;align=center;verticalAlign=top;spacingLeft=4;spacingRight=4;overflow=hidden;rotatable=0;points=[];portConstraint=eastwest;part=1;fontSize=12;fontStyle=1" parent="mvptM85uLOfzEBfm-qhw-174" vertex="1" connectable="0">
                    <mxGeometry width="56" height="26" as="geometry"/>
                </mxCell>
                <mxCell id="mvptM85uLOfzEBfm-qhw-176" value="rate(float)" style="shape=partialRectangle;top=0;left=0;right=0;bottom=0;align=left;verticalAlign=top;fillColor=none;spacingLeft=60;spacingRight=4;overflow=hidden;rotatable=0;points=[[0,0.5],[1,0.5]];portConstraint=eastwest;dropTarget=0;fontSize=12;" parent="mvptM85uLOfzEBfm-qhw-167" vertex="1">
                    <mxGeometry y="160" width="219" height="26" as="geometry"/>
                </mxCell>
                <mxCell id="mvptM85uLOfzEBfm-qhw-177" value="" style="shape=partialRectangle;top=0;left=0;bottom=0;fillColor=none;align=left;verticalAlign=top;spacingLeft=4;spacingRight=4;overflow=hidden;rotatable=0;points=[];portConstraint=eastwest;part=1;fontSize=12;" parent="mvptM85uLOfzEBfm-qhw-176" vertex="1" connectable="0">
                    <mxGeometry width="56" height="26" as="geometry"/>
                </mxCell>
                <mxCell id="Gwi2tzREElcgBNwIq8oY-8" value="reaction_obj(MtoM)" style="shape=partialRectangle;top=0;left=0;right=0;bottom=0;align=left;verticalAlign=top;fillColor=none;spacingLeft=60;spacingRight=4;overflow=hidden;rotatable=0;points=[[0,0.5],[1,0.5]];portConstraint=eastwest;dropTarget=0;fontSize=12;strokeColor=none;" vertex="1" parent="mvptM85uLOfzEBfm-qhw-167">
                    <mxGeometry y="186" width="219" height="26" as="geometry"/>
                </mxCell>
                <mxCell id="Gwi2tzREElcgBNwIq8oY-9" value="" style="shape=partialRectangle;top=0;left=0;bottom=0;fillColor=none;align=left;verticalAlign=top;spacingLeft=4;spacingRight=4;overflow=hidden;rotatable=0;points=[];portConstraint=eastwest;part=1;fontSize=12;" vertex="1" connectable="0" parent="Gwi2tzREElcgBNwIq8oY-8">
                    <mxGeometry width="56" height="26" as="geometry"/>
                </mxCell>
                <mxCell id="Gwi2tzREElcgBNwIq8oY-6" value="add_datetime(datetime)" style="shape=partialRectangle;top=0;left=0;right=0;bottom=0;align=left;verticalAlign=top;fillColor=none;spacingLeft=60;spacingRight=4;overflow=hidden;rotatable=0;points=[[0,0.5],[1,0.5]];portConstraint=eastwest;dropTarget=0;fontSize=12;" vertex="1" parent="mvptM85uLOfzEBfm-qhw-167">
                    <mxGeometry y="212" width="219" height="26" as="geometry"/>
                </mxCell>
                <mxCell id="Gwi2tzREElcgBNwIq8oY-7" value="" style="shape=partialRectangle;top=0;left=0;bottom=0;fillColor=none;align=left;verticalAlign=top;spacingLeft=4;spacingRight=4;overflow=hidden;rotatable=0;points=[];portConstraint=eastwest;part=1;fontSize=12;" vertex="1" connectable="0" parent="Gwi2tzREElcgBNwIq8oY-6">
                    <mxGeometry width="56" height="26" as="geometry"/>
                </mxCell>
                <mxCell id="mvptM85uLOfzEBfm-qhw-236" value="close_datetime(datetime)" style="shape=partialRectangle;top=0;left=0;right=0;bottom=0;align=left;verticalAlign=top;fillColor=none;spacingLeft=60;spacingRight=4;overflow=hidden;rotatable=0;points=[[0,0.5],[1,0.5]];portConstraint=eastwest;dropTarget=0;fontSize=12;" parent="mvptM85uLOfzEBfm-qhw-167" vertex="1">
                    <mxGeometry y="238" width="219" height="26" as="geometry"/>
                </mxCell>
                <mxCell id="mvptM85uLOfzEBfm-qhw-237" value="" style="shape=partialRectangle;top=0;left=0;bottom=0;fillColor=none;align=left;verticalAlign=top;spacingLeft=4;spacingRight=4;overflow=hidden;rotatable=0;points=[];portConstraint=eastwest;part=1;fontSize=12;" parent="mvptM85uLOfzEBfm-qhw-236" vertex="1" connectable="0">
                    <mxGeometry width="56" height="26" as="geometry"/>
                </mxCell>
                <mxCell id="mvptM85uLOfzEBfm-qhw-180" value="owner(obj)" style="shape=partialRectangle;top=0;left=0;right=0;bottom=0;align=left;verticalAlign=top;fillColor=none;spacingLeft=60;spacingRight=4;overflow=hidden;rotatable=0;points=[[0,0.5],[1,0.5]];portConstraint=eastwest;dropTarget=0;fontSize=12;" parent="mvptM85uLOfzEBfm-qhw-167" vertex="1">
                    <mxGeometry y="264" width="219" height="26" as="geometry"/>
                </mxCell>
                <mxCell id="mvptM85uLOfzEBfm-qhw-181" value="FK" style="shape=partialRectangle;top=0;left=0;bottom=0;fillColor=none;align=center;verticalAlign=top;spacingLeft=4;spacingRight=4;overflow=hidden;rotatable=0;points=[];portConstraint=eastwest;part=1;fontSize=12;fontStyle=1" parent="mvptM85uLOfzEBfm-qhw-180" vertex="1" connectable="0">
                    <mxGeometry width="56" height="26" as="geometry"/>
                </mxCell>
                <mxCell id="Gwi2tzREElcgBNwIq8oY-25" style="edgeStyle=orthogonalEdgeStyle;rounded=0;orthogonalLoop=1;jettySize=auto;html=1;entryX=0;entryY=0.5;entryDx=0;entryDy=0;startArrow=ERzeroToMany;startFill=1;endArrow=ERzeroToMany;endFill=1;" edge="1" parent="_QDG5Rb_dqg1lAWrn-jz-1" source="mvptM85uLOfzEBfm-qhw-153" target="Gwi2tzREElcgBNwIq8oY-8">
                    <mxGeometry relative="1" as="geometry"/>
                </mxCell>
                <mxCell id="Gwi2tzREElcgBNwIq8oY-30" style="edgeStyle=orthogonalEdgeStyle;rounded=0;orthogonalLoop=1;jettySize=auto;html=1;startArrow=none;startFill=0;endArrow=ERmany;endFill=0;exitX=1.008;exitY=0.789;exitDx=0;exitDy=0;exitPerimeter=0;" edge="1" parent="_QDG5Rb_dqg1lAWrn-jz-1" source="mvptM85uLOfzEBfm-qhw-153" target="mvptM85uLOfzEBfm-qhw-180">
                    <mxGeometry relative="1" as="geometry"/>
                </mxCell>
                <mxCell id="Gwi2tzREElcgBNwIq8oY-36" style="edgeStyle=orthogonalEdgeStyle;rounded=0;orthogonalLoop=1;jettySize=auto;html=1;exitX=0;exitY=0.5;exitDx=0;exitDy=0;entryX=0;entryY=0.5;entryDx=0;entryDy=0;startArrow=none;startFill=0;endArrow=ERmany;endFill=0;" edge="1" parent="_QDG5Rb_dqg1lAWrn-jz-1" source="mvptM85uLOfzEBfm-qhw-239" target="Gwi2tzREElcgBNwIq8oY-15">
                    <mxGeometry relative="1" as="geometry"/>
                </mxCell>
                <mxCell id="mvptM85uLOfzEBfm-qhw-238" value="UserGroup" style="swimlane;fontStyle=0;childLayout=stackLayout;horizontal=1;startSize=26;fillColor=#e0e0e0;horizontalStack=0;resizeParent=1;resizeParentMax=0;resizeLast=0;collapsible=1;marginBottom=0;swimlaneFillColor=#ffffff;align=center;fontSize=14;labelBackgroundColor=none;html=0;" parent="_QDG5Rb_dqg1lAWrn-jz-1" vertex="1">
                    <mxGeometry x="140" y="-360" width="219" height="160" as="geometry"/>
                </mxCell>
                <mxCell id="mvptM85uLOfzEBfm-qhw-239" value="id( int )" style="shape=partialRectangle;top=0;left=0;right=0;bottom=1;align=left;verticalAlign=middle;fillColor=none;spacingLeft=60;spacingRight=4;overflow=hidden;rotatable=0;points=[[0,0.5],[1,0.5]];portConstraint=eastwest;dropTarget=0;fontStyle=5;fontSize=12;" parent="mvptM85uLOfzEBfm-qhw-238" vertex="1">
                    <mxGeometry y="26" width="219" height="30" as="geometry"/>
                </mxCell>
                <mxCell id="mvptM85uLOfzEBfm-qhw-240" value="PK" style="shape=partialRectangle;fontStyle=1;top=0;left=0;bottom=0;fillColor=none;align=center;verticalAlign=middle;spacingLeft=4;spacingRight=4;overflow=hidden;rotatable=0;points=[];portConstraint=eastwest;part=1;fontSize=12;" parent="mvptM85uLOfzEBfm-qhw-239" vertex="1" connectable="0">
                    <mxGeometry width="56" height="30" as="geometry"/>
                </mxCell>
                <mxCell id="mvptM85uLOfzEBfm-qhw-241" value="members(MtoM)" style="shape=partialRectangle;top=0;left=0;right=0;bottom=0;align=left;verticalAlign=top;fillColor=none;spacingLeft=60;spacingRight=4;overflow=hidden;rotatable=0;points=[[0,0.5],[1,0.5]];portConstraint=eastwest;dropTarget=0;fontSize=12;" parent="mvptM85uLOfzEBfm-qhw-238" vertex="1">
                    <mxGeometry y="56" width="219" height="26" as="geometry"/>
                </mxCell>
                <mxCell id="mvptM85uLOfzEBfm-qhw-242" value="FK" style="shape=partialRectangle;top=0;left=0;bottom=0;fillColor=none;align=center;verticalAlign=top;spacingLeft=4;spacingRight=4;overflow=hidden;rotatable=0;points=[];portConstraint=eastwest;part=1;fontSize=12;fontStyle=1" parent="mvptM85uLOfzEBfm-qhw-241" vertex="1" connectable="0">
                    <mxGeometry width="56" height="26" as="geometry"/>
                </mxCell>
                <mxCell id="mvptM85uLOfzEBfm-qhw-243" value="group_name(char)" style="shape=partialRectangle;top=0;left=0;right=0;bottom=0;align=left;verticalAlign=top;fillColor=none;spacingLeft=60;spacingRight=4;overflow=hidden;rotatable=0;points=[[0,0.5],[1,0.5]];portConstraint=eastwest;dropTarget=0;fontSize=12;" parent="mvptM85uLOfzEBfm-qhw-238" vertex="1">
                    <mxGeometry y="82" width="219" height="26" as="geometry"/>
                </mxCell>
                <mxCell id="mvptM85uLOfzEBfm-qhw-244" value="" style="shape=partialRectangle;top=0;left=0;bottom=0;fillColor=none;align=left;verticalAlign=top;spacingLeft=4;spacingRight=4;overflow=hidden;rotatable=0;points=[];portConstraint=eastwest;part=1;fontSize=12;" parent="mvptM85uLOfzEBfm-qhw-243" vertex="1" connectable="0">
                    <mxGeometry width="56" height="26" as="geometry"/>
                </mxCell>
                <mxCell id="mvptM85uLOfzEBfm-qhw-245" value="password(char)" style="shape=partialRectangle;top=0;left=0;right=0;bottom=0;align=left;verticalAlign=top;fillColor=none;spacingLeft=60;spacingRight=4;overflow=hidden;rotatable=0;points=[[0,0.5],[1,0.5]];portConstraint=eastwest;dropTarget=0;fontSize=12;" parent="mvptM85uLOfzEBfm-qhw-238" vertex="1">
                    <mxGeometry y="108" width="219" height="26" as="geometry"/>
                </mxCell>
                <mxCell id="mvptM85uLOfzEBfm-qhw-246" value="" style="shape=partialRectangle;top=0;left=0;bottom=0;fillColor=none;align=left;verticalAlign=top;spacingLeft=4;spacingRight=4;overflow=hidden;rotatable=0;points=[];portConstraint=eastwest;part=1;fontSize=12;" parent="mvptM85uLOfzEBfm-qhw-245" vertex="1" connectable="0">
                    <mxGeometry width="56" height="26" as="geometry"/>
                </mxCell>
                <mxCell id="mvptM85uLOfzEBfm-qhw-247" value="" style="shape=partialRectangle;top=0;left=0;right=0;bottom=0;align=left;verticalAlign=top;fillColor=none;spacingLeft=60;spacingRight=4;overflow=hidden;rotatable=0;points=[[0,0.5],[1,0.5]];portConstraint=eastwest;dropTarget=0;fontSize=12;" parent="mvptM85uLOfzEBfm-qhw-238" vertex="1">
                    <mxGeometry y="134" width="219" height="26" as="geometry"/>
                </mxCell>
                <mxCell id="mvptM85uLOfzEBfm-qhw-248" value="" style="shape=partialRectangle;top=0;left=0;bottom=0;fillColor=none;align=left;verticalAlign=top;spacingLeft=4;spacingRight=4;overflow=hidden;rotatable=0;points=[];portConstraint=eastwest;part=1;fontSize=12;" parent="mvptM85uLOfzEBfm-qhw-247" vertex="1" connectable="0">
                    <mxGeometry width="56" height="26" as="geometry"/>
                </mxCell>
                <mxCell id="mvptM85uLOfzEBfm-qhw-152" value="CustomUser" style="swimlane;fontStyle=0;childLayout=stackLayout;horizontal=1;startSize=26;fillColor=#e0e0e0;horizontalStack=0;resizeParent=1;resizeParentMax=0;resizeLast=0;collapsible=1;marginBottom=0;swimlaneFillColor=#ffffff;align=center;fontSize=14;labelBackgroundColor=none;html=0;" parent="_QDG5Rb_dqg1lAWrn-jz-1" vertex="1">
                    <mxGeometry x="140" y="280" width="219" height="186" as="geometry"/>
                </mxCell>
                <mxCell id="mvptM85uLOfzEBfm-qhw-153" value="id( int )" style="shape=partialRectangle;top=0;left=0;right=0;bottom=1;align=left;verticalAlign=middle;fillColor=none;spacingLeft=60;spacingRight=4;overflow=hidden;rotatable=0;points=[[0,0.5],[1,0.5]];portConstraint=eastwest;dropTarget=0;fontStyle=5;fontSize=12;" parent="mvptM85uLOfzEBfm-qhw-152" vertex="1">
                    <mxGeometry y="26" width="219" height="30" as="geometry"/>
                </mxCell>
                <mxCell id="mvptM85uLOfzEBfm-qhw-154" value="PK" style="shape=partialRectangle;fontStyle=1;top=0;left=0;bottom=0;fillColor=none;align=center;verticalAlign=middle;spacingLeft=4;spacingRight=4;overflow=hidden;rotatable=0;points=[];portConstraint=eastwest;part=1;fontSize=12;" parent="mvptM85uLOfzEBfm-qhw-153" vertex="1" connectable="0">
                    <mxGeometry width="56" height="30" as="geometry"/>
                </mxCell>
                <mxCell id="mvptM85uLOfzEBfm-qhw-155" value="password ( char )" style="shape=partialRectangle;top=0;left=0;right=0;bottom=0;align=left;verticalAlign=top;fillColor=none;spacingLeft=60;spacingRight=4;overflow=hidden;rotatable=0;points=[[0,0.5],[1,0.5]];portConstraint=eastwest;dropTarget=0;fontSize=12;" parent="mvptM85uLOfzEBfm-qhw-152" vertex="1">
                    <mxGeometry y="56" width="219" height="26" as="geometry"/>
                </mxCell>
                <mxCell id="mvptM85uLOfzEBfm-qhw-156" value="" style="shape=partialRectangle;top=0;left=0;bottom=0;fillColor=none;align=center;verticalAlign=top;spacingLeft=4;spacingRight=4;overflow=hidden;rotatable=0;points=[];portConstraint=eastwest;part=1;fontSize=12;fontStyle=1" parent="mvptM85uLOfzEBfm-qhw-155" vertex="1" connectable="0">
                    <mxGeometry width="56" height="26" as="geometry"/>
                </mxCell>
                <mxCell id="PWBQ0urO3nGih7Q4apG8-0" value="username ( char )" style="shape=partialRectangle;top=0;left=0;right=0;bottom=0;align=left;verticalAlign=top;fillColor=none;spacingLeft=60;spacingRight=4;overflow=hidden;rotatable=0;points=[[0,0.5],[1,0.5]];portConstraint=eastwest;dropTarget=0;fontSize=12;" parent="mvptM85uLOfzEBfm-qhw-152" vertex="1">
                    <mxGeometry y="82" width="219" height="26" as="geometry"/>
                </mxCell>
                <mxCell id="PWBQ0urO3nGih7Q4apG8-1" value="" style="shape=partialRectangle;top=0;left=0;bottom=0;fillColor=none;align=left;verticalAlign=top;spacingLeft=4;spacingRight=4;overflow=hidden;rotatable=0;points=[];portConstraint=eastwest;part=1;fontSize=12;" parent="PWBQ0urO3nGih7Q4apG8-0" vertex="1" connectable="0">
                    <mxGeometry width="56" height="26" as="geometry"/>
                </mxCell>
                <mxCell id="mvptM85uLOfzEBfm-qhw-157" value="email( char )" style="shape=partialRectangle;top=0;left=0;right=0;bottom=0;align=left;verticalAlign=top;fillColor=none;spacingLeft=60;spacingRight=4;overflow=hidden;rotatable=0;points=[[0,0.5],[1,0.5]];portConstraint=eastwest;dropTarget=0;fontSize=12;" parent="mvptM85uLOfzEBfm-qhw-152" vertex="1">
                    <mxGeometry y="108" width="219" height="26" as="geometry"/>
                </mxCell>
                <mxCell id="mvptM85uLOfzEBfm-qhw-158" value="" style="shape=partialRectangle;top=0;left=0;bottom=0;fillColor=none;align=left;verticalAlign=top;spacingLeft=4;spacingRight=4;overflow=hidden;rotatable=0;points=[];portConstraint=eastwest;part=1;fontSize=12;" parent="mvptM85uLOfzEBfm-qhw-157" vertex="1" connectable="0">
                    <mxGeometry width="56" height="26" as="geometry"/>
                </mxCell>
                <mxCell id="mvptM85uLOfzEBfm-qhw-199" value="" style="shape=partialRectangle;top=0;left=0;right=0;bottom=0;align=left;verticalAlign=top;fillColor=none;spacingLeft=60;spacingRight=4;overflow=hidden;rotatable=0;points=[[0,0.5],[1,0.5]];portConstraint=eastwest;dropTarget=0;fontSize=12;" parent="mvptM85uLOfzEBfm-qhw-152" vertex="1">
                    <mxGeometry y="134" width="219" height="26" as="geometry"/>
                </mxCell>
                <mxCell id="mvptM85uLOfzEBfm-qhw-200" value="" style="shape=partialRectangle;top=0;left=0;bottom=0;fillColor=none;align=left;verticalAlign=top;spacingLeft=4;spacingRight=4;overflow=hidden;rotatable=0;points=[];portConstraint=eastwest;part=1;fontSize=12;" parent="mvptM85uLOfzEBfm-qhw-199" vertex="1" connectable="0">
                    <mxGeometry width="56" height="26" as="geometry"/>
                </mxCell>
                <mxCell id="mvptM85uLOfzEBfm-qhw-159" value="" style="shape=partialRectangle;top=0;left=0;right=0;bottom=0;align=left;verticalAlign=top;fillColor=none;spacingLeft=60;spacingRight=4;overflow=hidden;rotatable=0;points=[[0,0.5],[1,0.5]];portConstraint=eastwest;dropTarget=0;fontSize=12;" parent="mvptM85uLOfzEBfm-qhw-152" vertex="1">
                    <mxGeometry y="160" width="219" height="26" as="geometry"/>
                </mxCell>
                <mxCell id="mvptM85uLOfzEBfm-qhw-160" value="" style="shape=partialRectangle;top=0;left=0;bottom=0;fillColor=none;align=left;verticalAlign=top;spacingLeft=4;spacingRight=4;overflow=hidden;rotatable=0;points=[];portConstraint=eastwest;part=1;fontSize=12;" parent="mvptM85uLOfzEBfm-qhw-159" vertex="1" connectable="0">
                    <mxGeometry width="56" height="26" as="geometry"/>
                </mxCell>
                <mxCell id="Gwi2tzREElcgBNwIq8oY-41" style="edgeStyle=orthogonalEdgeStyle;rounded=0;orthogonalLoop=1;jettySize=auto;html=1;exitX=0;exitY=0.5;exitDx=0;exitDy=0;entryX=0;entryY=0.5;entryDx=0;entryDy=0;startArrow=none;startFill=0;endArrow=ERmany;endFill=0;" edge="1" parent="_QDG5Rb_dqg1lAWrn-jz-1" source="mvptM85uLOfzEBfm-qhw-153" target="Gwi2tzREElcgBNwIq8oY-11">
                    <mxGeometry relative="1" as="geometry"/>
                </mxCell>
            </root>
        </mxGraphModel>
    </diagram>
    <diagram id="qDwJwx7jRb-wwFIXWxUA" name="Page-3">
        &#xa;
        <mxGraphModel dx="1022" dy="408" grid="1" gridSize="10" guides="1" tooltips="1" connect="1" arrows="1" fold="1" page="1" pageScale="1" pageWidth="827" pageHeight="1169" math="0" shadow="0">
            &#xa;
            <root>
                &#xa;
                <mxCell id="2q0uKMERBlusWcFliTum-0"/>
                &#xa;
                <mxCell id="2q0uKMERBlusWcFliTum-1" parent="2q0uKMERBlusWcFliTum-0"/>
                &#xa;
            </root>
            &#xa;
        </mxGraphModel>
        &#xa;
    </diagram>
</mxfile>